<?xml version="1.0" encoding="UTF-8"?>
<svg xmlns="http://www.w3.org/2000/svg" viewBox="0 0 128 128" width="128" height="128">
  <!-- Background circle -->
  <circle cx="64" cy="64" r="60" fill="#1e1e2e"/>

  <!-- Color wheel segments -->
  <!-- Red -->
  <path d="M64 64 L64 14 A50 50 0 0 1 107.3 39 Z" fill="#f38ba8"/>
  <!-- Yellow -->
  <path d="M64 64 L107.3 39 A50 50 0 0 1 107.3 89 Z" fill="#f9e2af"/>
  <!-- Green -->
  <path d="M64 64 L107.3 89 A50 50 0 0 1 64 114 Z" fill="#a6e3a1"/>
  <!-- Cyan -->
  <path d="M64 64 L64 114 A50 50 0 0 1 20.7 89 Z" fill="#89dceb"/>
  <!-- Blue -->
  <path d="M64 64 L20.7 89 A50 50 0 0 1 20.7 39 Z" fill="#89b4fa"/>
  <!-- Magenta -->
  <path d="M64 64 L20.7 39 A50 50 0 0 1 64 14 Z" fill="#cba6f7"/>

  <!-- Center circle -->
  <circle cx="64" cy="64" r="22" fill="#1e1e2e"/>

  <!-- Center checkmark -->
  <polyline points="52,64 61,73 76,55" stroke="#2ecc71" stroke-width="5" stroke-linecap="round" stroke-linejoin="round" fill="none"/>

  <!-- Outer ring -->
  <circle cx="64" cy="64" r="60" fill="none" stroke="#313244" stroke-width="2"/>
</svg>
